HIERARCHY
ROOT hip
{
	OFFSET 0.000000 0.000000 0.000000
	CHANNELS 6 Xposition Yposition Zposition Xrotation Zrotation Yrotation 
	JOINT abdomen
	{
		OFFSET 0.000000 3.422050 0.000000
		CHANNELS 3 Xrotation Zrotation Yrotation 
		JOINT chest
		{
			OFFSET 0.000000 8.486693 -0.684411
			CHANNELS 3 Xrotation Zrotation Yrotation 
			JOINT neck
			{
				OFFSET 0.000000 10.266162 -0.273764
				CHANNELS 3 Xrotation Zrotation Yrotation 
				JOINT head
				{
					OFFSET 0.000000 3.148285 0.000000
					CHANNELS 3 Xrotation Zrotation Yrotation 
					End Site
					{
						OFFSET 0.000000 3.148289 0.000000
					}
				}
			}
			JOINT lCollar
			{
				OFFSET 3.422053 6.707223 -0.821293
				CHANNELS 3 Yrotation Zrotation Xrotation 
				JOINT lShldr
				{
					OFFSET 3.285171 0.000000 0.000000
					CHANNELS 3 Zrotation Yrotation Xrotation 
					JOINT lForeArm
					{
						OFFSET 10.129278 0.000000 0.000000
						CHANNELS 3 Yrotation Zrotation Xrotation 
						JOINT lHand
						{
							OFFSET 8.486692 0.000000 0.000000
							CHANNELS 3 Zrotation Yrotation Xrotation 
							End Site
							{
								OFFSET 4.106464 0.000000 0.000000
							}
						}
					}
				}
			}
			JOINT rCollar
			{
				OFFSET -3.558935 6.707223 -0.821293
				CHANNELS 3 Yrotation Zrotation Xrotation 
				JOINT rShldr
				{
					OFFSET -3.148289 0.000000 0.000000
					CHANNELS 3 Zrotation Yrotation Xrotation 
					JOINT rForeArm
					{
						OFFSET -10.266159 0.000000 0.000000
						CHANNELS 3 Yrotation Zrotation Xrotation 
						JOINT rHand
						{
							OFFSET -8.349810 0.000000 0.000000
							CHANNELS 3 Zrotation Yrotation Xrotation 
							End Site
							{
								OFFSET -4.106464 0.000000 0.000000
							}
						}
					}
				}
			}
		}
	}
	JOINT lThigh
	{
		OFFSET 5.338403 -1.642589 1.368821
		CHANNELS 3 Xrotation Zrotation Yrotation 
		JOINT lShin
		{
			OFFSET -2.053232 -20.121670 0.000000
			CHANNELS 3 Xrotation Zrotation Yrotation 
			JOINT lFoot
			{
				OFFSET 0.000000 -19.300380 -1.231939
				CHANNELS 3 Xrotation Yrotation Zrotation 
				End Site
				{
					OFFSET 0.000000 -2.463878 4.653993
				}
			}
		}
	}
	JOINT rThigh
	{
		OFFSET -5.338403 -1.642589 1.368821
		CHANNELS 3 Xrotation Zrotation Yrotation 
		JOINT rShin
		{
			OFFSET 2.053232 -20.121670 0.000000
			CHANNELS 3 Xrotation Zrotation Yrotation 
			JOINT rFoot
			{
				OFFSET 0.000000 -19.300380 -1.231939
				CHANNELS 3 Xrotation Yrotation Zrotation 
				End Site
				{
					OFFSET 0.000000 -2.463878 4.653993
				}
			}
		}
	}
}
MOTION
Frames: 6
Frame Time: 0.049989
-0.543686 14.532802 -20.868774 71.996742 -0.011437 0.006818 -3.887710 -0.084365 -0.072733 35.503883 -0.341309 -0.591679 -3.967577 0.000000 0.000000 -34.084892 0.000000 0.000000 23.592386 -7.349061 -12.126387 7.610913 -65.389542 -6.277065 -42.675747 18.720943 -1.889500 55.617577 10.779697 -3.162062 -20.931145 6.506530 -12.742867 -2.960060 63.709682 -2.195706 51.202530 -21.509451 1.347837 -54.932774 -14.663114 3.772182 -32.935299 42.901649 36.155876 60.683006 9.987696 39.215103 56.428604 -12.706093 20.238749 -32.934425 -42.916695 -36.175163 60.687653 -10.002431 -39.225372 56.424831 12.716100 -20.267563 
-0.543686 14.478134 -20.834532 71.996742 -0.011437 0.006818 -4.437234 -0.084393 -0.072705 36.401733 -0.341311 -0.591695 -5.943716 0.000000 0.000000 -32.156925 0.000000 0.000000 23.425905 -7.255951 -12.362632 7.610913 -65.389542 -6.277065 -42.675747 18.720943 -1.889500 55.617577 10.779697 -3.162062 -20.819845 6.426215 -12.988076 -2.960060 63.709682 -2.195706 51.202530 -21.509451 1.347837 -54.932774 -14.663114 3.772182 -32.564312 42.923351 36.314629 60.683006 9.987696 39.215103 56.428604 -12.706093 20.238749 -32.563110 -42.938000 -36.334362 60.687653 -10.002431 -39.225372 56.424831 12.716100 -20.267563 
-0.543686 14.423468 -20.800287 71.996742 -0.011437 0.006818 -4.986961 -0.084421 -0.072677 37.300468 -0.341313 -0.591710 -7.929515 0.000000 0.000000 -30.219992 0.000000 0.000000 23.259821 -7.162150 -12.598576 7.610913 -65.389542 -6.277065 -42.675747 18.720943 -1.889500 55.617577 10.779697 -3.162062 -20.708906 6.345423 -13.233116 -2.960060 63.709682 -2.195706 51.202530 -21.509451 1.347837 -54.932774 -14.663114 3.772182 -32.193081 42.944317 36.473648 60.683006 9.987696 39.215103 56.428604 -12.706093 20.238749 -32.191563 -42.958549 -36.493816 60.687653 -10.002431 -39.225372 56.424831 12.716100 -20.267563 
-0.543686 14.368800 -20.766045 71.996742 -0.011437 0.006818 -5.536865 -0.084449 -0.072648 38.199974 -0.341314 -0.591726 -9.923841 0.000000 0.000000 -28.275164 0.000000 0.000000 23.094156 -7.067665 -12.834219 7.610913 -65.389542 -6.277065 -42.675747 18.720943 -1.889500 55.617577 10.779697 -3.162062 -20.598320 6.264153 -13.477978 -2.960060 63.709682 -2.195706 51.202530 -21.509451 1.347837 -54.932774 -14.663114 3.772182 -31.821619 42.964523 36.632923 60.683014 9.987693 39.215103 56.428604 -12.706093 20.238749 -31.819773 -42.978333 -36.653507 60.687653 -10.002431 -39.225372 56.424831 12.716100 -20.267563 
-0.543686 14.314133 -20.731802 71.996742 -0.011437 0.006818 -6.086920 -0.084477 -0.072619 39.100147 -0.341315 -0.591741 -11.925542 0.000000 0.000000 -26.323494 0.000000 0.000000 22.928902 -6.972497 -13.069556 7.610913 -65.389542 -6.277065 -42.675747 18.720943 -1.889500 55.617577 10.779698 -3.162063 -20.488092 6.182407 -13.722656 -2.960060 63.709682 -2.195706 51.202530 -21.509451 1.347837 -54.932774 -14.663114 3.772182 -31.449921 42.983963 36.792416 60.683006 9.987697 39.215103 56.428604 -12.706093 20.238749 -31.447773 -42.997372 -36.813438 60.687653 -10.002430 -39.225372 56.424831 12.716100 -20.267563 
-0.543686 14.259465 -20.697559 71.996742 -0.011437 0.006818 -6.637104 -0.084504 -0.072590 40.000893 -0.341316 -0.591757 -13.933427 0.000000 0.000000 -24.366098 0.000000 0.000000 22.764071 -6.876650 -13.304581 7.610913 -65.389542 -6.277065 -42.675747 18.720943 -1.889500 55.617577 10.779698 -3.162063 -20.378233 6.100192 -13.967157 -2.960060 63.709682 -2.195706 51.202530 -21.509451 1.347837 -54.932774 -14.663114 3.772182 -31.078030 43.002666 36.952160 60.683006 9.987696 39.215103 56.428604 -12.706093 20.238749 -31.075567 -43.015663 -36.973614 60.687645 -10.002431 -39.225368 56.424831 12.716100 -20.267563 
